<?xml version="1.0" standalone="no"?>
<!DOCTYPE svg PUBLIC "-//W3C//DTD SVG 20010904//EN"
 "http://www.w3.org/TR/2001/REC-SVG-20010904/DTD/svg10.dtd">
<svg version="1.0" xmlns="http://www.w3.org/2000/svg"
 width="500.000000pt" height="500.000000pt" viewBox="0 0 500.000000 500.000000"
 preserveAspectRatio="xMidYMid meet">

<g transform="translate(0.000000,500.000000) scale(0.100000,-0.100000)"
fill="#000000" stroke="none">
<path d="M1590 4834 c-179 -84 -377 -177 -440 -206 -63 -28 -189 -87 -280
-131 -174 -83 -541 -255 -648 -302 -35 -16 -67 -35 -71 -44 -5 -9 -1 -129 10
-276 20 -284 31 -451 84 -1255 19 -294 37 -562 39 -595 3 -33 11 -156 18 -272
6 -117 15 -213 19 -213 8 0 35 55 119 245 53 120 520 1133 779 1688 61 131
111 240 111 242 0 3 49 108 186 397 46 97 84 179 84 181 0 5 106 232 125 267
28 53 196 422 193 425 -2 1 -149 -66 -328 -151z"/>
<path d="M3060 4984 c0 -3 23 -53 51 -112 95 -199 136 -286 359 -767 289 -622
354 -762 400 -865 20 -47 94 -206 163 -355 201 -433 452 -976 539 -1167 45
-98 85 -178 89 -178 5 0 9 22 9 49 0 27 18 316 40 643 22 326 58 865 80 1198
22 333 42 630 45 661 5 40 3 58 -7 66 -7 6 -242 117 -523 248 -280 131 -561
262 -624 291 -62 30 -115 54 -117 54 -1 0 -87 41 -191 91 -234 113 -313 150
-313 143z"/>
<path d="M2454 3553 c-49 -128 -313 -772 -466 -1136 -66 -158 -118 -290 -115
-293 7 -7 1227 -7 1234 0 3 2 -118 312 -267 688 -150 376 -276 692 -280 703
-42 110 -53 135 -60 135 -5 0 -25 -44 -46 -97z"/>
<path d="M1487 1273 c-9 -27 -59 -158 -112 -293 l-96 -245 23 -19 c40 -32
1168 -678 1195 -684 8 -2 51 19 96 46 45 27 201 118 347 202 472 272 727 424
747 443 10 9 -11 74 -97 295 -60 156 -112 288 -115 293 -4 5 -399 9 -989 9
l-983 0 -16 -47z"/>
</g>
</svg>
